<?xml version="1.0" standalone="no"?>
<!DOCTYPE svg PUBLIC "-//W3C//DTD SVG 20010904//EN"
 "http://www.w3.org/TR/2001/REC-SVG-20010904/DTD/svg10.dtd">
<svg version="1.0" xmlns="http://www.w3.org/2000/svg"
 width="512.000000pt" height="512.000000pt" viewBox="0 0 512.000000 512.000000"
 preserveAspectRatio="xMidYMid meet">
<metadata>
Created by potrace 1.11, written by Peter Selinger 2001-2013
</metadata>
<g transform="translate(0.000000,512.000000) scale(0.100000,-0.100000)"
fill="#000000" stroke="none">
<path d="M2379 5116 c-2 -2 -40 -6 -83 -10 -44 -4 -82 -8 -85 -10 -3 -2 -31
-7 -61 -11 -30 -3 -75 -11 -100 -17 -25 -5 -56 -12 -70 -14 -52 -10 -236 -66
-326 -100 -412 -154 -826 -454 -1084 -784 -19 -25 -37 -47 -40 -50 -7 -7 -45
-61 -105 -150 -176 -260 -312 -589 -374 -905 -40 -200 -46 -267 -45 -515 0
-183 3 -241 19 -345 3 -16 7 -43 9 -60 37 -265 165 -623 307 -860 10 -16 27
-46 38 -65 19 -36 131 -195 166 -239 333 -407 694 -665 1175 -839 76 -28 199
-64 262 -78 230 -50 362 -62 623 -59 180 2 257 7 355 24 363 62 643 168 965
364 392 239 762 659 961 1094 113 245 195 543 221 803 12 118 8 516 -6 600 -6
41 -14 91 -17 110 -3 19 -10 53 -16 75 -5 22 -12 49 -14 60 -14 81 -79 283
-131 410 -254 616 -779 1137 -1398 1387 -133 54 -376 126 -485 144 -70 11 -85
14 -195 30 -44 6 -460 15 -466 10z"/>
</g>
</svg>
